# xmcd
#
# Track frame offsets: 
#        182
#        14807
#        30850
#        47655
#        60057
#        74807
#        89525
#        105745
#        118822
#        139072
#        154295
#        166490
#        178632
#        191132
#        204150
#        216615
#        233137
#        247255
#        270695
#        287835
#        307957
#
# Disc length: 4382 seconds
#
# Revision: 6
# Processed by: cddbd v1.5.2PL0 Copyright (c) Steve Scherf et al.
# Submitted via: ExactAudioCopy v0.99pb4
#
DISCID=3f111c15
DTITLE=Various Artist - Sounds Of The Seventies - 1971 Take Two
DYEAR=1990
DGENRE=Rock
TTITLE0=Marvin Gaye - Mercy Mercy Me (The Ecology)
TTITLE1=Staple Singers - Respect Yourself
TTITLE2=Van Morrison - Blue Money
TTITLE3=Jean Knight - Mr. Big Stuff
TTITLE4=Isaac Hayes - Theme From Shaft
TTITLE5=Undisputed Truth - Smiling Faces Sometimes
TTITLE6=Dramatics - Whatcha See Is Whatcha Get
TTITLE7=Rare Earth - I Just Want To Celebrate
TTITLE8=Joe Cocker - High Time We Went
TTITLE9=Joan Baez - The Night They Drove Old Dixie Down
TTITLE10=Delaney And Bonnie And Friends - Never Ending Song Of Love
TTITLE11=Grass Roots - Sooner Or Later
TTITLE12=Cornelius Brothers And Sister Rose - Treat Her Like A Lady
TTITLE13=Paul Revere And The Raiders - Indian Reservation (The Lament 
TTITLE13=Of The Cherokee Reservation Indian)
TTITLE14=Tommy James - Draggin' The Line
TTITLE15=Three Dog Night - Liar
TTITLE16=Runt - We Gotta Get You A Woman
TTITLE17=Chi-Lites - Have You Seen Her
TTITLE18=Ritchie Havens - Here Comes The Sun
TTITLE19=Matthews' Southern Comfort - Woodstock
TTITLE20=Emerson Lake And Palmer - Lucky Man
EXTD=
EXTT0=
EXTT1=
EXTT2=
EXTT3=
EXTT4=
EXTT5=
EXTT6=
EXTT7=
EXTT8=
EXTT9=
EXTT10=
EXTT11=
EXTT12=
EXTT13=
EXTT14=
EXTT15=
EXTT16=
EXTT17=
EXTT18=
EXTT19=
EXTT20=
PLAYORDER=
